# xmcd CD database file
#
# Track frame offsets:
#	182
#	12477
#	25415
#	40480
#	51477
#	63890
#	75350
#	87330
#	100917
#	111595
#	122130
#	137845
#	148382
#	160285
#	175155
#	184840
#	196075
#	210325
#	225482
#	242325
#	253432
#	262992
#	276162
#	290360
#	301487
#
# Disc length: 4165 seconds
#
# Revision: 3
# Processed by: cddbd v1.5.2PL0 Copyright (c) Steve Scherf et al.
# Submitted via: CDex 1.51
#
DISCID=6f104319
DTITLE=Various Artist - Top Country - Down In Tennessee
DYEAR=1996
DGENRE=Country
TTITLE0=Okie From Muskogee - Merle Haggard
TTITLE1=Good Time Charlie's Got The Blues - Charlie Rich
TTITLE2=Night Life - Ray Price
TTITLE3=Wine Me Up - Faron Young
TTITLE4=It's A Little More Like Heaven - Hank Locklin
TTITLE5=Give Myself A Party - Don Gibson
TTITLE6=High Noon (Do Not Forsake Me) - Moe Bandy
TTITLE7=Tiger Woman - Claude King
TTITLE8=See The Big Man Cry - Charlie Louvin
TTITLE9=I Love You Honey - Pasty Cline
TTITLE10=Country Bumpkin - Cal Smith
TTITLE11=Walking On New Grass - Kenny Price
TTITLE12=I Hope So - Willie Nelson
TTITLE13=Me And Bobby McGee - Roger Miller
TTITLE14=The Race Is On - Johnny Paycheck
TTITLE15=San Antonio Rose - Ferlin Husky
TTITLE16=Lonely Woman Make Good Lovers - Bob Luman
TTITLE17=Baby Doll - Barbara Fairchild
TTITLE18=Fool's Gold - Lee Greenwood
TTITLE19=Juanita Jones - Stu Phillips
TTITLE20=Am I That Easy To Forget  - Skeeter Davis
TTITLE21=Nobody's Darlin' But Mine - Stonewall Jackson
TTITLE22=Cry - Lynn Anderson
TTITLE23=Hey Joe - Carl Smith
TTITLE24=Sea Of Love - David Houston
EXTD=YEAR: 1996
EXTT0=
EXTT1=
EXTT2=
EXTT3=
EXTT4=
EXTT5=
EXTT6=
EXTT7=
EXTT8=
EXTT9=
EXTT10=
EXTT11=
EXTT12=
EXTT13=
EXTT14=
EXTT15=
EXTT16=
EXTT17=
EXTT18=
EXTT19=
EXTT20=
EXTT21=
EXTT22=
EXTT23=
EXTT24=
PLAYORDER=
